<mxfile host="www.draw.io" modified="2019-12-13T08:50:36.225Z" agent="Mozilla/5.0 (Windows NT 10.0; Win64; x64) AppleWebKit/537.36 (KHTML, like Gecko) Chrome/78.0.3904.108 Safari/537.36" etag="918hpbY92uBmlG1-LL5V" version="12.4.1" type="github" pages="1">
  <diagram id="yLZNIlH2zXO2sHHhMVWW" name="Page-1">
    <mxGraphModel dx="1360" dy="802" grid="1" gridSize="10" guides="1" tooltips="1" connect="1" arrows="1" fold="1" page="1" pageScale="1" pageWidth="1100" pageHeight="850" math="0" shadow="0">
      <root>
        <mxCell id="0"/>
        <mxCell id="1" parent="0"/>
        <mxCell id="hw8tsg2X2oHHRZ30RkQz-3" style="edgeStyle=orthogonalEdgeStyle;rounded=0;orthogonalLoop=1;jettySize=auto;html=1;startArrow=classic;startFill=1;" edge="1" parent="1" source="YRo3PmSRweSSVWQ40-4b-10" target="YRo3PmSRweSSVWQ40-4b-31">
          <mxGeometry relative="1" as="geometry"/>
        </mxCell>
        <mxCell id="hw8tsg2X2oHHRZ30RkQz-6" style="rounded=0;orthogonalLoop=1;jettySize=auto;html=1;entryX=0;entryY=0.5;entryDx=0;entryDy=0;startArrow=none;startFill=0;exitX=1;exitY=0.5;exitDx=0;exitDy=0;" edge="1" parent="1" source="YRo3PmSRweSSVWQ40-4b-10" target="hw8tsg2X2oHHRZ30RkQz-5">
          <mxGeometry relative="1" as="geometry"/>
        </mxCell>
        <mxCell id="hw8tsg2X2oHHRZ30RkQz-9" style="edgeStyle=none;rounded=0;orthogonalLoop=1;jettySize=auto;html=1;entryX=0;entryY=0.5;entryDx=0;entryDy=0;entryPerimeter=0;startArrow=none;startFill=0;exitX=1;exitY=0.5;exitDx=0;exitDy=0;" edge="1" parent="1" source="YRo3PmSRweSSVWQ40-4b-10" target="hw8tsg2X2oHHRZ30RkQz-8">
          <mxGeometry relative="1" as="geometry"/>
        </mxCell>
        <mxCell id="YRo3PmSRweSSVWQ40-4b-10" value="" style="rounded=1;whiteSpace=wrap;html=1;arcSize=16;" parent="1" vertex="1">
          <mxGeometry x="410" y="205" width="410" height="370" as="geometry"/>
        </mxCell>
        <mxCell id="YRo3PmSRweSSVWQ40-4b-8" value="Connector" style="edgeStyle=orthogonalEdgeStyle;rounded=0;orthogonalLoop=1;jettySize=auto;html=1;startArrow=classic;startFill=1;" parent="1" source="YRo3PmSRweSSVWQ40-4b-1" target="YRo3PmSRweSSVWQ40-4b-7" edge="1">
          <mxGeometry relative="1" as="geometry"/>
        </mxCell>
        <mxCell id="YRo3PmSRweSSVWQ40-4b-1" value="" style="aspect=fixed;perimeter=ellipsePerimeter;html=1;align=center;shadow=0;dashed=0;fontColor=#4277BB;labelBackgroundColor=#ffffff;fontSize=12;spacingTop=3;image;image=img/lib/ibm/blockchain/message_bus.svg;" parent="1" vertex="1">
          <mxGeometry x="140" y="360" width="60" height="60" as="geometry"/>
        </mxCell>
        <mxCell id="YRo3PmSRweSSVWQ40-4b-6" style="edgeStyle=orthogonalEdgeStyle;rounded=0;orthogonalLoop=1;jettySize=auto;html=1;startArrow=classic;startFill=1;" parent="1" source="YRo3PmSRweSSVWQ40-4b-3" target="YRo3PmSRweSSVWQ40-4b-1" edge="1">
          <mxGeometry relative="1" as="geometry"/>
        </mxCell>
        <mxCell id="YRo3PmSRweSSVWQ40-4b-3" value="" style="aspect=fixed;perimeter=ellipsePerimeter;html=1;align=center;shadow=0;dashed=0;fontColor=#4277BB;labelBackgroundColor=#ffffff;fontSize=12;spacingTop=3;image;image=img/lib/ibm/applications/iot_application.svg;" parent="1" vertex="1">
          <mxGeometry x="10" y="310" width="60" height="60" as="geometry"/>
        </mxCell>
        <mxCell id="YRo3PmSRweSSVWQ40-4b-5" style="edgeStyle=orthogonalEdgeStyle;rounded=0;orthogonalLoop=1;jettySize=auto;html=1;entryX=0;entryY=0.5;entryDx=0;entryDy=0;" parent="1" source="YRo3PmSRweSSVWQ40-4b-4" target="YRo3PmSRweSSVWQ40-4b-1" edge="1">
          <mxGeometry relative="1" as="geometry"/>
        </mxCell>
        <mxCell id="YRo3PmSRweSSVWQ40-4b-4" value="" style="aspect=fixed;perimeter=ellipsePerimeter;html=1;align=center;shadow=0;dashed=0;fontColor=#4277BB;labelBackgroundColor=#ffffff;fontSize=12;spacingTop=3;image;image=img/lib/ibm/applications/automation_tools.svg;" parent="1" vertex="1">
          <mxGeometry x="10" y="410" width="60" height="60" as="geometry"/>
        </mxCell>
        <mxCell id="YRo3PmSRweSSVWQ40-4b-11" style="edgeStyle=orthogonalEdgeStyle;rounded=0;orthogonalLoop=1;jettySize=auto;html=1;startArrow=classic;startFill=1;" parent="1" source="YRo3PmSRweSSVWQ40-4b-7" target="YRo3PmSRweSSVWQ40-4b-10" edge="1">
          <mxGeometry relative="1" as="geometry"/>
        </mxCell>
        <mxCell id="YRo3PmSRweSSVWQ40-4b-7" value="" style="outlineConnect=0;fontColor=#232F3E;gradientColor=#945DF2;gradientDirection=north;fillColor=#5A30B5;strokeColor=#ffffff;dashed=0;verticalLabelPosition=bottom;verticalAlign=top;align=center;html=1;fontSize=12;fontStyle=0;aspect=fixed;shape=mxgraph.aws4.resourceIcon;resIcon=mxgraph.aws4.managed_streaming_for_kafka;" parent="1" vertex="1">
          <mxGeometry x="290" y="365" width="50" height="50" as="geometry"/>
        </mxCell>
        <mxCell id="YRo3PmSRweSSVWQ40-4b-18" style="edgeStyle=orthogonalEdgeStyle;rounded=0;orthogonalLoop=1;jettySize=auto;html=1;startArrow=classic;startFill=1;" parent="1" source="YRo3PmSRweSSVWQ40-4b-12" target="YRo3PmSRweSSVWQ40-4b-15" edge="1">
          <mxGeometry relative="1" as="geometry"/>
        </mxCell>
        <mxCell id="YRo3PmSRweSSVWQ40-4b-19" style="edgeStyle=orthogonalEdgeStyle;rounded=0;orthogonalLoop=1;jettySize=auto;html=1;entryX=0.5;entryY=1;entryDx=0;entryDy=0;startArrow=classic;startFill=1;" parent="1" source="YRo3PmSRweSSVWQ40-4b-12" target="hw8tsg2X2oHHRZ30RkQz-2" edge="1">
          <mxGeometry relative="1" as="geometry">
            <mxPoint x="530" y="160" as="targetPoint"/>
          </mxGeometry>
        </mxCell>
        <mxCell id="YRo3PmSRweSSVWQ40-4b-12" value="Customer" style="aspect=fixed;perimeter=ellipsePerimeter;html=1;align=center;shadow=0;dashed=0;fontColor=#4277BB;labelBackgroundColor=#ffffff;fontSize=12;spacingTop=3;image;image=img/lib/ibm/applications/application_logic.svg;" parent="1" vertex="1">
          <mxGeometry x="580" y="220" width="60" height="60" as="geometry"/>
        </mxCell>
        <mxCell id="hw8tsg2X2oHHRZ30RkQz-12" style="edgeStyle=none;rounded=0;orthogonalLoop=1;jettySize=auto;html=1;entryX=0.5;entryY=0;entryDx=0;entryDy=0;startArrow=none;startFill=0;" edge="1" parent="1" source="YRo3PmSRweSSVWQ40-4b-13" target="hw8tsg2X2oHHRZ30RkQz-10">
          <mxGeometry relative="1" as="geometry"/>
        </mxCell>
        <mxCell id="hw8tsg2X2oHHRZ30RkQz-13" style="edgeStyle=none;rounded=0;orthogonalLoop=1;jettySize=auto;html=1;startArrow=none;startFill=0;exitX=0.5;exitY=1;exitDx=0;exitDy=0;" edge="1" parent="1" source="YRo3PmSRweSSVWQ40-4b-13" target="hw8tsg2X2oHHRZ30RkQz-11">
          <mxGeometry relative="1" as="geometry"/>
        </mxCell>
        <mxCell id="YRo3PmSRweSSVWQ40-4b-13" value="Parking" style="aspect=fixed;perimeter=ellipsePerimeter;html=1;align=center;shadow=0;dashed=0;fontColor=#4277BB;labelBackgroundColor=#ffffff;fontSize=12;spacingTop=3;image;image=img/lib/ibm/applications/application_logic.svg;" parent="1" vertex="1">
          <mxGeometry x="520" y="460" width="60" height="60" as="geometry"/>
        </mxCell>
        <mxCell id="YRo3PmSRweSSVWQ40-4b-15" value="Vinid" style="aspect=fixed;perimeter=ellipsePerimeter;html=1;align=center;shadow=0;dashed=0;fontColor=#4277BB;labelBackgroundColor=#ffffff;fontSize=12;spacingTop=3;image;image=img/lib/ibm/users/integrated_digital_experiences.svg;" parent="1" vertex="1">
          <mxGeometry x="650" y="100" width="60" height="60" as="geometry"/>
        </mxCell>
        <mxCell id="YRo3PmSRweSSVWQ40-4b-20" value="Access Control" style="aspect=fixed;perimeter=ellipsePerimeter;html=1;align=center;shadow=0;dashed=0;fontColor=#4277BB;labelBackgroundColor=#ffffff;fontSize=12;spacingTop=3;image;image=img/lib/ibm/applications/application_logic.svg;" parent="1" vertex="1">
          <mxGeometry x="470" y="330" width="60" height="60" as="geometry"/>
        </mxCell>
        <mxCell id="YRo3PmSRweSSVWQ40-4b-29" style="edgeStyle=orthogonalEdgeStyle;rounded=0;orthogonalLoop=1;jettySize=auto;html=1;startArrow=classic;startFill=1;" parent="1" source="YRo3PmSRweSSVWQ40-4b-21" target="YRo3PmSRweSSVWQ40-4b-22" edge="1">
          <mxGeometry relative="1" as="geometry"/>
        </mxCell>
        <mxCell id="YRo3PmSRweSSVWQ40-4b-30" style="edgeStyle=orthogonalEdgeStyle;rounded=0;orthogonalLoop=1;jettySize=auto;html=1;startArrow=classic;startFill=1;" parent="1" source="YRo3PmSRweSSVWQ40-4b-21" target="YRo3PmSRweSSVWQ40-4b-26" edge="1">
          <mxGeometry relative="1" as="geometry"/>
        </mxCell>
        <mxCell id="YRo3PmSRweSSVWQ40-4b-21" value="BMS" style="aspect=fixed;perimeter=ellipsePerimeter;html=1;align=center;shadow=0;dashed=0;fontColor=#4277BB;labelBackgroundColor=#ffffff;fontSize=12;spacingTop=3;image;image=img/lib/ibm/applications/application_logic.svg;" parent="1" vertex="1">
          <mxGeometry x="680" y="460" width="60" height="60" as="geometry"/>
        </mxCell>
        <mxCell id="YRo3PmSRweSSVWQ40-4b-22" value="Siemens" style="aspect=fixed;perimeter=ellipsePerimeter;html=1;align=center;shadow=0;dashed=0;fontColor=#4277BB;labelBackgroundColor=#ffffff;fontSize=12;spacingTop=3;image;image=img/lib/ibm/applications/application_logic.svg;" parent="1" vertex="1">
          <mxGeometry x="620" y="600" width="60" height="60" as="geometry"/>
        </mxCell>
        <mxCell id="YRo3PmSRweSSVWQ40-4b-26" value="Schneider" style="aspect=fixed;perimeter=ellipsePerimeter;html=1;align=center;shadow=0;dashed=0;fontColor=#4277BB;labelBackgroundColor=#ffffff;fontSize=12;spacingTop=3;image;image=img/lib/ibm/applications/application_logic.svg;" parent="1" vertex="1">
          <mxGeometry x="740" y="600" width="60" height="60" as="geometry"/>
        </mxCell>
        <mxCell id="YRo3PmSRweSSVWQ40-4b-31" value="Cassandra" style="aspect=fixed;perimeter=ellipsePerimeter;html=1;align=center;shadow=0;dashed=0;fontColor=#4277BB;labelBackgroundColor=#ffffff;fontSize=12;spacingTop=3;image;image=img/lib/ibm/analytics/data_integration.svg;" parent="1" vertex="1">
          <mxGeometry x="900" y="360" width="60" height="60" as="geometry"/>
        </mxCell>
        <mxCell id="hw8tsg2X2oHHRZ30RkQz-1" value="Notification" style="aspect=fixed;perimeter=ellipsePerimeter;html=1;align=center;shadow=0;dashed=0;fontColor=#4277BB;labelBackgroundColor=#ffffff;fontSize=12;spacingTop=3;image;image=img/lib/ibm/applications/application_logic.svg;" vertex="1" parent="1">
          <mxGeometry x="700" y="320" width="60" height="60" as="geometry"/>
        </mxCell>
        <mxCell id="hw8tsg2X2oHHRZ30RkQz-2" value="Other SSO" style="aspect=fixed;perimeter=ellipsePerimeter;html=1;align=center;shadow=0;dashed=0;fontColor=#4277BB;labelBackgroundColor=#ffffff;fontSize=12;spacingTop=3;image;image=img/lib/ibm/blockchain/identity_access_manager.svg;" vertex="1" parent="1">
          <mxGeometry x="500" y="100" width="60" height="60" as="geometry"/>
        </mxCell>
        <mxCell id="hw8tsg2X2oHHRZ30RkQz-5" value="SMS" style="aspect=fixed;perimeter=ellipsePerimeter;html=1;align=center;shadow=0;dashed=0;fontColor=#4277BB;labelBackgroundColor=#ffffff;fontSize=12;spacingTop=3;image;image=img/lib/ibm/data/conversation_trained_deployed.svg;" vertex="1" parent="1">
          <mxGeometry x="900" y="460" width="60" height="60" as="geometry"/>
        </mxCell>
        <mxCell id="hw8tsg2X2oHHRZ30RkQz-7" value="" style="aspect=fixed;perimeter=ellipsePerimeter;html=1;align=center;shadow=0;dashed=0;fontColor=#4277BB;labelBackgroundColor=#ffffff;fontSize=12;spacingTop=3;image;image=img/lib/ibm/social/file_sync.svg;" vertex="1" parent="1">
          <mxGeometry x="10" y="510" width="60" height="60" as="geometry"/>
        </mxCell>
        <mxCell id="hw8tsg2X2oHHRZ30RkQz-8" value="" style="verticalLabelPosition=bottom;html=1;verticalAlign=top;align=center;strokeColor=none;fillColor=#00BEF2;shape=mxgraph.azure.message;pointerEvents=1;" vertex="1" parent="1">
          <mxGeometry x="900" y="273" width="50" height="37.5" as="geometry"/>
        </mxCell>
        <mxCell id="hw8tsg2X2oHHRZ30RkQz-10" value="" style="aspect=fixed;perimeter=ellipsePerimeter;html=1;align=center;shadow=0;dashed=0;fontColor=#4277BB;labelBackgroundColor=#ffffff;fontSize=12;spacingTop=3;image;image=img/lib/ibm/applications/application_logic.svg;" vertex="1" parent="1">
          <mxGeometry x="520" y="600" width="60" height="60" as="geometry"/>
        </mxCell>
        <mxCell id="hw8tsg2X2oHHRZ30RkQz-11" value="" style="aspect=fixed;perimeter=ellipsePerimeter;html=1;align=center;shadow=0;dashed=0;fontColor=#4277BB;labelBackgroundColor=#ffffff;fontSize=12;spacingTop=3;image;image=img/lib/ibm/applications/application_logic.svg;" vertex="1" parent="1">
          <mxGeometry x="410" y="600" width="60" height="60" as="geometry"/>
        </mxCell>
      </root>
    </mxGraphModel>
  </diagram>
</mxfile>
